<svg width="44" height="16" viewBox="0 0 44 16" fill="none" xmlns="http://www.w3.org/2000/svg">
<path d="M0.18 9.924C0.18 9.828 0.244 9.78 0.372 9.78C0.5 9.78 0.896 9.868 1.56 10.044C1.712 8.732 2.14 7.308 2.844 5.772C3.092 5.212 3.388 4.932 3.732 4.932C3.796 4.932 3.856 5 3.912 5.136C3.976 5.272 4.008 5.44 4.008 5.64C4.008 5.88 3.88 6.54 3.624 7.62C3.376 8.7 3.212 9.64 3.132 10.44C3.66 10.56 4.124 10.62 4.524 10.62C4.932 10.62 5.304 10.516 5.64 10.308C5.976 10.092 6.264 9.816 6.504 9.48C7 8.768 7.248 7.912 7.248 6.912C7.24 5.064 6.504 4.14 5.04 4.14C4.52 4.148 3.6 4.38 2.28 4.836C2.024 4.924 1.8 4.968 1.608 4.968C1.416 4.968 1.32 4.912 1.32 4.8C1.32 4.648 1.432 4.468 1.656 4.26C1.88 4.052 2.168 3.852 2.52 3.66C3.384 3.196 4.224 2.964 5.04 2.964C6.16 2.964 7.08 3.264 7.8 3.864C8.648 4.576 9.068 5.656 9.06 7.104C9.06 7.72 8.964 8.328 8.772 8.928C8.58 9.528 8.288 10.064 7.896 10.536C7.504 11 7.008 11.376 6.408 11.664C5.808 11.952 5.1 12.096 4.284 12.096C3.956 12.096 3.54 12.024 3.036 11.88C2.98 12.032 2.84 12.108 2.616 12.108C2.2 12.108 1.916 12.04 1.764 11.904C1.62 11.76 1.536 11.528 1.512 11.208C1.128 10.992 0.808 10.768 0.552 10.536C0.304 10.304 0.18 10.1 0.18 9.924ZM27.9398 9.168C28.0758 9.168 28.1438 9.352 28.1438 9.72C28.1438 9.92 28.0598 10.164 27.8918 10.452C27.7238 10.732 27.5038 10.992 27.2318 11.232C26.9678 11.464 26.6718 11.656 26.3438 11.808C26.0158 11.96 25.6958 12.036 25.3838 12.036C24.9118 12.036 24.5838 11.92 24.3998 11.688C24.2238 11.448 24.1358 11.1 24.1358 10.644C24.1358 10.18 24.3158 9.388 24.6758 8.268C23.5718 8.22 22.7678 8.196 22.2638 8.196H22.0958C21.9518 9.084 21.8798 10.016 21.8798 10.992C21.8798 11.424 21.7158 11.72 21.3878 11.88C21.2358 11.952 21.0878 12.02 20.9438 12.084C20.8078 12.148 20.6598 12.18 20.4998 12.18C20.0998 12.18 19.8998 11.82 19.8998 11.1C19.8998 10.38 20.0638 9.456 20.3918 8.328C20.0398 8.368 19.7278 8.408 19.4558 8.448C19.1918 8.488 18.9838 8.508 18.8317 8.508C18.6797 8.508 18.6037 8.468 18.6037 8.388C18.6037 8.148 18.7997 7.904 19.1918 7.656C19.5918 7.408 20.1318 7.22 20.8118 7.092C21.5638 5.18 22.4838 3.904 23.5718 3.264C23.9718 3.024 24.3958 2.904 24.8438 2.904C25.6438 2.912 26.2198 3.128 26.5718 3.552C26.9318 3.976 27.1118 4.54 27.1118 5.244C27.1198 5.94 26.9078 6.848 26.4758 7.968C26.3158 8.4 26.1678 8.792 26.0318 9.144C25.8958 9.496 25.8278 9.78 25.8278 9.996C25.8278 10.212 25.8438 10.376 25.8758 10.488C25.9078 10.6 25.9838 10.656 26.1038 10.656C26.3198 10.656 26.8278 10.24 27.6278 9.408C27.7718 9.248 27.8758 9.168 27.9398 9.168ZM25.3838 5.592C25.3838 4.896 25.1238 4.548 24.6038 4.548C24.0758 4.548 23.6198 4.772 23.2358 5.22C22.8598 5.66 22.5678 6.252 22.3598 6.996L25.0838 7.032C25.2838 6.392 25.3838 5.912 25.3838 5.592ZM30.6503 11.472C30.6503 11.944 30.1903 12.18 29.2703 12.18C29.0703 12.18 28.9503 12.08 28.9103 11.88C28.8783 11.672 28.8623 11.384 28.8623 11.016C28.8623 10.24 29.0183 9.28 29.3303 8.136C29.8503 6.248 30.4063 5.136 30.9983 4.8C31.0783 4.752 31.1663 4.728 31.2623 4.728C31.3583 4.728 31.4063 4.884 31.4063 5.196C31.4063 5.508 31.3903 5.784 31.3583 6.024C31.2943 6.504 31.1783 7.124 31.0103 7.884C30.8503 8.644 30.7703 9.092 30.7703 9.228L30.6503 11.472ZM31.4663 8.244C31.4663 8.14 31.5223 8.072 31.6343 8.04C31.7543 8.008 31.9023 7.98 32.0783 7.956C32.2543 7.924 32.4463 7.88 32.6543 7.824C32.8623 7.768 33.0543 7.664 33.2303 7.512C33.6383 7.16 33.8423 6.572 33.8423 5.748C33.8423 5.22 33.6623 4.816 33.3023 4.536C32.9503 4.256 32.4383 4.116 31.7663 4.116C31.1023 4.116 30.4783 4.256 29.8943 4.536C29.6783 4.64 29.4823 4.736 29.3063 4.824C29.1383 4.912 28.9823 4.956 28.8383 4.956C28.6943 4.956 28.6223 4.912 28.6223 4.824C28.6223 4.688 28.7543 4.464 29.0183 4.152C29.2823 3.864 29.6983 3.596 30.2663 3.348C30.8423 3.1 31.4463 2.976 32.0783 2.976C33.2703 2.968 34.1983 3.248 34.8623 3.816C35.4383 4.312 35.7263 4.956 35.7263 5.748C35.7263 6.532 35.4423 7.236 34.8743 7.86C34.3063 8.476 33.5943 8.784 32.7383 8.784C31.8903 8.784 31.4663 8.604 31.4663 8.244ZM37.998 11.472C37.998 11.944 37.538 12.18 36.618 12.18C36.418 12.18 36.298 12.08 36.258 11.88C36.226 11.672 36.21 11.384 36.21 11.016C36.21 10.24 36.366 9.28 36.678 8.136C37.198 6.248 37.754 5.136 38.346 4.8C38.426 4.752 38.514 4.728 38.61 4.728C38.706 4.728 38.754 4.884 38.754 5.196C38.754 5.508 38.738 5.784 38.706 6.024C38.642 6.504 38.526 7.124 38.358 7.884C38.198 8.644 38.118 9.092 38.118 9.228L37.998 11.472ZM38.814 8.244C38.814 8.14 38.87 8.072 38.982 8.04C39.102 8.008 39.25 7.98 39.426 7.956C39.602 7.924 39.794 7.88 40.002 7.824C40.21 7.768 40.402 7.664 40.578 7.512C40.986 7.16 41.19 6.572 41.19 5.748C41.19 5.22 41.01 4.816 40.65 4.536C40.298 4.256 39.786 4.116 39.114 4.116C38.45 4.116 37.826 4.256 37.242 4.536C37.026 4.64 36.83 4.736 36.654 4.824C36.486 4.912 36.33 4.956 36.186 4.956C36.042 4.956 35.97 4.912 35.97 4.824C35.97 4.688 36.102 4.464 36.366 4.152C36.63 3.864 37.046 3.596 37.614 3.348C38.19 3.1 38.794 2.976 39.426 2.976C40.618 2.968 41.546 3.248 42.21 3.816C42.786 4.312 43.074 4.956 43.074 5.748C43.074 6.532 42.79 7.236 42.222 7.86C41.654 8.476 40.942 8.784 40.086 8.784C39.238 8.784 38.814 8.604 38.814 8.244Z" fill="black"/>
<path d="M17 10C17 11.1046 16.1046 12 15 12L12 12C10.8954 12 10 11.1046 10 10V8L17 8V10Z" fill="#F44336"/>
<path d="M10 5C10 3.89543 10.8954 3 12 3H15C16.1046 3 17 3.89543 17 5V7H10V5Z" fill="#F44336"/>
</svg>
